<?xml version="1.0" encoding="UTF-8"?>
<svg width="400px" height="449px" viewBox="0 0 400 449" version="1.1" xmlns="http://www.w3.org/2000/svg" xmlns:xlink="http://www.w3.org/1999/xlink">
    <!-- Generator: Sketch 52.6 (67491) - http://www.bohemiancoding.com/sketch -->
    <title>Combined Shape</title>
    <desc>Created with Sketch.</desc>
    <g id="Page-1" stroke="none" stroke-width="1" fill="none" fill-rule="evenodd">
        <g id="no-scary-parts" transform="translate(-50.000000, -26.000000)" fill="#000000">
            <path d="M64.851952,50.3005531 C125.669103,34.1001844 187.051786,26 249.000002,26 C311.017079,26 373.038647,34.1182028 435.064706,50.3546083 C443.86333,52.6578038 450.000002,60.6076224 450.000002,69.7027036 L450.000002,290.221683 C450.000002,301.905913 444.891194,313.006018 436.01593,320.60542 L262.073194,469.543053 C254.557566,475.978273 243.466033,475.950854 235.982313,469.478554 L63.8341699,320.596116 C55.0488274,312.998107 50.0000017,301.956539 50.0000017,290.341377 L50.0000018,69.6266386 C50.0000018,60.5636224 56.0943207,52.633396 64.851952,50.3005531 Z M254.442401,290.993889 C282.438315,285.874862 327.30955,240.258948 339.001239,220.008349 C352.808358,196.093718 344.6146,165.514197 320.699969,151.707079 C296.785338,137.89996 266.205817,146.093718 252.398699,170.008349 C251.573552,171.437545 250.721621,173.073035 249.854159,174.888008 C248.986697,173.073037 248.134766,171.437546 247.309619,170.008349 C233.5025,146.093718 202.92298,137.89996 179.008349,151.707079 C155.093718,165.514197 146.89996,196.093718 160.707079,220.008349 C172.398768,240.258948 217.270002,285.874862 245.265917,290.993889 C246.711364,291.330927 248.24477,291.481719 249.854159,291.462026 C251.463547,291.481719 252.996954,291.330927 254.442401,290.993889 Z" id="Combined-Shape"></path>
        </g>
    </g>
</svg>