<?xml version="1.0" encoding="UTF-8"?>
<svg width="400px" height="449px" viewBox="0 0 400 449" version="1.1" xmlns="http://www.w3.org/2000/svg" xmlns:xlink="http://www.w3.org/1999/xlink">
    <!-- Generator: Sketch 52.6 (67491) - http://www.bohemiancoding.com/sketch -->
    <title>Group</title>
    <desc>Created with Sketch.</desc>
    <g id="Page-1" stroke="none" stroke-width="1" fill="none" fill-rule="evenodd">
        <g id="icon128" transform="translate(-50.000000, -26.000000)">
            <g id="Group" transform="translate(50.000000, 26.000000)">
                <path d="M14.851952,24.3005531 C75.6691027,8.10018436 137.051786,8.54157257e-15 199.000002,0 C261.017079,-9.63500554e-16 323.038647,8.11820277 385.064706,24.3546083 L385.064705,24.3546099 C393.86333,26.6578038 400.000002,34.6076224 400.000002,43.7027036 L400.000002,264.221683 C400.000002,275.905913 394.891194,287.006018 386.01593,294.60542 L212.073194,443.543053 C204.557566,449.978273 193.466033,449.950854 185.982313,443.478554 L13.8341699,294.596116 C5.04882745,286.998107 1.66415154e-06,275.956539 1.66415153e-06,264.341377 L1.77353017e-06,43.6266386 C1.77353014e-06,34.5636224 6.09432067,26.633396 14.851952,24.3005531 Z" id="Rectangle" fill="#7F0E7F"></path>
                <path d="M204.442401,264.993889 C202.996954,265.330927 201.463547,265.481719 199.854159,265.462026 C198.24477,265.481719 196.711364,265.330927 195.265917,264.993889 C167.270002,259.874862 122.398768,214.258948 110.707079,194.008349 C96.8999598,170.093718 105.093718,139.514197 129.008349,125.707079 C152.92298,111.89996 183.5025,120.093718 197.309619,144.008349 C198.134766,145.437546 198.986697,147.073037 199.854159,148.888008 C200.721621,147.073035 201.573552,145.437545 202.398699,144.008349 C216.205817,120.093718 246.785338,111.89996 270.699969,125.707079 C294.6146,139.514197 302.808358,170.093718 289.001239,194.008349 C277.30955,214.258948 232.438315,259.874862 204.442401,264.993889 Z" id="Combined-Shape" fill="#EBC5FA"></path>
            </g>
        </g>
    </g>
</svg>